<svg width="1024" height="1024" viewBox="0 0 1024 1024" fill="none" xmlns="http://www.w3.org/2000/svg">
  <defs>
    <linearGradient id="bg" x1="128" y1="64" x2="896" y2="960" gradientUnits="userSpaceOnUse">
      <stop stop-color="#FFF5F8"/>
      <stop offset="1" stop-color="#FFDCE8"/>
    </linearGradient>
    <linearGradient id="liquid" x1="310" y1="636" x2="694" y2="808" gradientUnits="userSpaceOnUse">
      <stop stop-color="#FFAABF"/>
      <stop offset="1" stop-color="#FF90AC"/>
    </linearGradient>
    <linearGradient id="glassShine" x1="402" y1="270" x2="664" y2="808" gradientUnits="userSpaceOnUse">
      <stop stop-color="#FFFFFF" stop-opacity="0.95"/>
      <stop offset="1" stop-color="#FFF7FA" stop-opacity="0.8"/>
    </linearGradient>
    <pattern id="stripes" patternUnits="userSpaceOnUse" width="52" height="52" patternTransform="rotate(22)">
      <rect width="52" height="52" fill="transparent"/>
      <rect x="0" y="0" width="18" height="52" fill="#FFFFFF" fill-opacity="0.18"/>
    </pattern>
    <filter id="softShadow" x="208" y="214" width="608" height="672" filterUnits="userSpaceOnUse" color-interpolation-filters="sRGB">
      <feDropShadow dx="0" dy="22" stdDeviation="18" flood-color="#E9A8B7" flood-opacity="0.34"/>
    </filter>
  </defs>

  <rect width="1024" height="1024" rx="228" fill="url(#bg)"/>
  <rect width="1024" height="1024" rx="228" fill="url(#stripes)"/>

  <ellipse cx="512" cy="798" rx="176" ry="32" fill="#F0A8B6" fill-opacity="0.36"/>

  <g filter="url(#softShadow)">
    <path
      d="M425 252C425 234.327 439.327 220 457 220H567C584.673 220 599 234.327 599 252V264C599 280.255 586.255 294 570 295H569V393C569 416.405 575.519 439.347 587.835 459.249L706.661 651.298C719.822 672.573 720.252 699.338 707.787 721.025C695.322 742.711 672.225 756 647.211 756H376.789C351.775 756 328.678 742.711 316.213 721.025C303.748 699.338 304.178 672.573 317.339 651.298L436.165 459.249C448.481 439.347 455 416.405 455 393V295H454C437.745 294 425 280.255 425 264V252Z"
      fill="url(#glassShine)"
      stroke="#5C3743"
      stroke-width="12"
      stroke-linejoin="round"
    />

    <path
      d="M394 645C401.194 622.315 423.822 607 447.62 607H585.935C607.199 607 626.886 618.216 637.691 636.493L669.862 690.915C676.083 701.438 668.496 714.75 656.272 714.75H367.343C355.436 714.75 347.842 702.02 353.421 691.501L394 645Z"
      fill="url(#liquid)"
    />

    <path
      d="M380 667C408 640 446 629 484 631C520 633 559 649 587 647C611 645 629 635 647 621"
      stroke="#6D3546"
      stroke-width="7"
      stroke-linecap="round"
      stroke-linejoin="round"
      opacity="0.9"
    />

    <path
      d="M503.567 632.208C514.793 618.973 535.484 619.096 546.551 632.463C556.779 644.819 556.942 663.205 546.928 675.737C530.452 696.359 514.912 708.328 514.912 708.328C514.912 708.328 499.602 697.558 483.509 677.86C473.76 665.926 473.129 647.692 482.067 634.995C491.662 621.363 511.348 620.747 521.788 633.612L524.942 637.497L528.132 633.641"
      fill="#FF6B79"
      stroke="#6D3546"
      stroke-width="8"
      stroke-linejoin="round"
    />

    <ellipse cx="475" cy="535" rx="11" ry="13" fill="#5C3743"/>
    <ellipse cx="549" cy="535" rx="11" ry="13" fill="#5C3743"/>
    <path
      d="M492 564C497.651 571.572 505.236 575.223 512 575.223C518.764 575.223 526.349 571.572 532 564"
      stroke="#5C3743"
      stroke-width="8"
      stroke-linecap="round"
    />

    <path
      d="M390 663L433 584"
      stroke="#FFFFFF"
      stroke-width="12"
      stroke-linecap="round"
      opacity="0.82"
    />
    <ellipse cx="447" cy="562" rx="9" ry="14" transform="rotate(26 447 562)" fill="#FFFFFF" fill-opacity="0.82"/>

    <ellipse cx="468" cy="368" rx="26" ry="34" fill="#FFA4B7" stroke="#5C3743" stroke-width="9"/>
    <ellipse cx="539" cy="337" rx="22" ry="28" fill="#FFA4B7" stroke="#5C3743" stroke-width="9"/>
    <ellipse cx="517" cy="286" rx="18" ry="22" fill="#FFA4B7" stroke="#5C3743" stroke-width="9"/>
    <ellipse cx="454" cy="357" rx="6" ry="9" transform="rotate(28 454 357)" fill="#FFFFFF" fill-opacity="0.78"/>
    <ellipse cx="546" cy="329" rx="5" ry="7" transform="rotate(24 546 329)" fill="#FFFFFF" fill-opacity="0.78"/>
  </g>
</svg>
